<svg width="176" height="122" viewBox="0 0 176 122" fill="none" xmlns="http://www.w3.org/2000/svg">
<path d="M19.3707 97.962V112.4C19.3707 118.799 16.1636 122 9.75289 122C6.41422 122 3.95378 121.205 2.37156 119.615C0.789334 118.029 0 115.601 0 112.332V97.962H4.14578V113.159C4.14578 116.779 6.03733 118.589 9.81689 118.589C10.9653 118.589 11.9111 118.433 12.6542 118.124C13.3938 117.816 13.9413 117.34 14.2969 116.701C14.6489 116.062 14.8942 115.37 15.0258 114.632C15.1573 113.89 15.2249 112.971 15.2249 111.867V97.9585H19.3707V97.962Z" fill="#EEF3F3"/>
<path d="M43.9182 97.9622L34.464 107.367L44.5155 121.539H39.3742L31.6089 110.249L28.224 113.628V121.542H24.1138V97.9657H28.2275V108.663L38.6773 97.9657H43.9182V97.9622Z" fill="#EEF3F3"/>
<path d="M46.8374 97.9622H58.0161C60.3592 97.9622 62.2721 98.4874 63.7547 99.5344C65.2374 100.585 65.977 102.242 65.977 104.517C65.977 105.93 65.6356 107.137 64.9494 108.141C64.2632 109.145 63.3032 109.869 62.0623 110.309C62.6347 110.441 63.1325 110.64 63.5556 110.906C63.9752 111.172 64.3023 111.459 64.5334 111.768C64.7645 112.077 64.9601 112.474 65.113 112.961C65.2694 113.447 65.3725 113.873 65.4294 114.235C65.4827 114.597 65.5361 115.079 65.5787 115.676C65.6001 115.832 65.6285 116.13 65.6605 116.57C65.6925 117.014 65.7138 117.305 65.7281 117.45C65.7387 117.592 65.7601 117.841 65.7956 118.196C65.8276 118.55 65.8561 118.799 65.8774 118.941C65.8987 119.083 65.9378 119.296 65.9947 119.569C66.0481 119.846 66.0978 120.055 66.1441 120.201C66.1867 120.343 66.2436 120.51 66.3112 120.698C66.3787 120.886 66.4534 121.045 66.5423 121.177C66.6312 121.308 66.7307 121.432 66.841 121.542H62.3965C62.329 121.454 62.2685 121.351 62.2152 121.226C62.1618 121.106 62.1085 120.974 62.0658 120.829C62.0196 120.687 61.9876 120.552 61.9663 120.431C61.945 120.311 61.9165 120.144 61.8845 119.935C61.8525 119.725 61.8276 119.555 61.817 119.42C61.8063 119.289 61.7885 119.09 61.7672 118.824C61.7458 118.558 61.7281 118.359 61.7174 118.227C61.7067 118.096 61.689 117.862 61.6676 117.532C61.6463 117.198 61.6356 116.968 61.6356 116.836C61.5254 114.916 61.1201 113.596 60.4267 112.879C59.7298 112.162 58.4072 111.804 56.4623 111.804H50.9547V121.539H46.841V97.9622H46.8374ZM50.9476 101.341V108.727H56.4196C57.2161 108.727 57.8916 108.68 58.4427 108.595C58.9938 108.507 59.5556 108.347 60.1174 108.116C60.6792 107.885 61.113 107.502 61.4116 106.973C61.7103 106.444 61.8596 105.77 61.8596 104.954C61.8596 104.201 61.7281 103.58 61.4614 103.084C61.1947 102.587 60.8143 102.218 60.3165 101.976C59.8187 101.735 59.3103 101.568 58.7912 101.479C58.2721 101.391 57.657 101.348 56.9494 101.348H50.9476V101.341Z" fill="#EEF3F3"/>
<path d="M81.0028 97.9302L90.1228 121.539H85.6784L83.4241 115.282H74.0695L71.7477 121.539H67.4668L76.5904 97.9302H81.0028ZM82.329 112.169L78.8126 102.235L75.129 112.169H82.329Z" fill="#EEF3F3"/>
<path d="M96.5583 97.9622V121.539H92.377V97.9622H96.5583Z" fill="#EEF3F3"/>
<path d="M120.707 97.9622V121.539H116.43L105.419 104.191V121.539H101.504V97.9622H105.849L116.729 115.346V97.9622H120.707Z" fill="#EEF3F3"/>
<path d="M129.728 97.9622V121.539H125.547V97.9622H129.728Z" fill="#EEF3F3"/>
<path d="M145.518 97.9302L154.638 121.539H150.194L147.94 115.282H138.585L136.263 121.539H131.982L141.106 97.9302H145.518ZM146.845 112.169L143.328 102.235L139.645 112.169H146.845Z" fill="#EEF3F3"/>
<path d="M176 97.9622V121.539H171.723L160.711 104.191V121.539H156.796V97.9622H161.141L172.021 115.346V97.9622H176Z" fill="#EEF3F3"/>
<path d="M175.971 0H0.106445V9.15311H175.971V0Z" fill="#EEF3F3"/>
<path d="M152.234 18.6399V74.6765H141.433V18.6399H117.226H115.893H93.486V74.6765H82.6878V18.6399H60.1882H58.8549H34.7375V74.6765H23.9393V18.6399H0.106445V27.6546H14.5349V83.6912H44.142V27.6546H58.8549H60.1882H73.2833V83.6912H102.89V27.6546H115.893H117.226H132.032V83.6912H161.635V27.6546H175.971V18.6399H152.234Z" fill="#2CBF96"/>
</svg>
