<svg width="21" height="21" viewBox="0 0 21 21" fill="none" xmlns="http://www.w3.org/2000/svg">
<path fill-rule="evenodd" clip-rule="evenodd" d="M20.5693 0.891602H0.569336V20.8916H20.5693V0.891602ZM4.60342 7.85219V14.8916H7.38151V7.85219H4.60342ZM4.98974 6.7202C5.27001 6.92796 5.6052 7.03184 5.99531 7.03184C6.3892 7.03184 6.72439 6.92796 7.00087 6.7202C7.28114 6.50938 7.42128 6.25579 7.42128 5.95943C7.42128 5.66612 7.28114 5.41559 7.00087 5.20783C6.72439 4.99701 6.3892 4.8916 5.99531 4.8916C5.6052 4.8916 5.27001 4.99701 4.98974 5.20783C4.70947 5.41559 4.56934 5.66612 4.56934 5.95943C4.56934 6.25579 4.70947 6.50938 4.98974 6.7202ZM11.9279 14.8916V10.8769C11.9316 10.6081 11.9922 10.3789 12.1097 10.1895C12.2309 10.0001 12.4013 9.85494 12.621 9.75411C12.8444 9.65023 13.102 9.59829 13.3936 9.59829C13.8329 9.59829 14.1757 9.70828 14.4219 9.92827C14.6719 10.1482 14.795 10.4538 14.7912 10.8449V14.8916H17.5693V10.4049C17.573 9.87633 17.4481 9.41498 17.1943 9.02084C16.9443 8.62365 16.5921 8.31507 16.1376 8.09508C15.6869 7.87205 15.1548 7.76053 14.5412 7.76053C13.8973 7.76053 13.3425 7.88427 12.8766 8.13175C12.4108 8.37617 12.0813 8.71378 11.8881 9.14458H11.7915V7.85219H9.14977V14.8916H11.9279Z" fill="#2CBF96"/>
</svg>
