<svg width="25" height="21" viewBox="0 0 25 21" fill="none" xmlns="http://www.w3.org/2000/svg">
<path fill-rule="evenodd" clip-rule="evenodd" d="M6.34889 12.8993L0.190614 10.4879C-0.0648316 10.3879 -0.063118 10.0258 0.193263 9.92817L24.1624 0.803065C24.3835 0.718909 24.6105 0.911738 24.5631 1.14348L20.5555 20.7599C20.5143 20.9615 20.287 21.0627 20.1096 20.9585L13.6303 17.1528C13.5321 17.0951 13.4097 17.098 13.3144 17.1602L9.57342 19.6017C9.4156 19.7047 9.20302 19.6384 9.13174 19.4639L6.51722 13.0652C6.48617 12.9892 6.42533 12.9293 6.34889 12.8993ZM9.53855 18.5178L7.42807 12.5482L21.6889 3.59372L9.53855 14.3572V18.5178Z" fill="#2CBF96"/>
</svg>
