<svg width="21" height="21" viewBox="0 0 21 21" fill="none" xmlns="http://www.w3.org/2000/svg">
<path fill-rule="evenodd" clip-rule="evenodd" d="M2.56934 2.8916H18.5693V18.8916H2.56934V2.8916ZM10.5693 15.8916C13.3308 15.8916 15.5693 13.653 15.5693 10.8916C15.5693 8.13018 13.3308 5.8916 10.5693 5.8916C7.80791 5.8916 5.56934 8.13018 5.56934 10.8916C5.56934 13.653 7.80791 15.8916 10.5693 15.8916ZM20.5693 0.891602H18.5693H2.56934H0.569336V2.8916V18.8916V20.8916H2.56934H18.5693H20.5693V18.8916V2.8916V0.891602ZM10.5693 13.8916C12.2262 13.8916 13.5693 12.5485 13.5693 10.8916C13.5693 9.23475 12.2262 7.8916 10.5693 7.8916C8.91248 7.8916 7.56934 9.23475 7.56934 10.8916C7.56934 12.5485 8.91248 13.8916 10.5693 13.8916ZM15.5693 6.8916C16.1216 6.8916 16.5693 6.44389 16.5693 5.8916C16.5693 5.33932 16.1216 4.8916 15.5693 4.8916C15.0171 4.8916 14.5693 5.33932 14.5693 5.8916C14.5693 6.44389 15.0171 6.8916 15.5693 6.8916Z" fill="#2CBF96"/>
</svg>
