<svg width="89" height="62" viewBox="0 0 89 62" fill="none" xmlns="http://www.w3.org/2000/svg">
<path d="M9.79539 49.784V57.1212C9.79539 60.3731 8.17362 62 4.93186 62C3.24356 62 1.99935 61.596 1.19925 60.788C0.399152 59.9817 0 58.748 0 57.0869V49.784H2.09644V57.5071C2.09644 59.3468 3.05297 60.2667 4.96422 60.2667C5.54497 60.2667 6.02323 60.1873 6.39901 60.0304C6.77299 59.8735 7.04988 59.6318 7.22968 59.3072C7.40768 58.9825 7.53174 58.6308 7.59826 58.2556C7.66479 57.8787 7.69895 57.4115 7.69895 56.8506V49.7822H9.79539V49.784Z" fill="white"/>
<path d="M22.2086 49.784L17.4278 54.5636L22.5107 61.7655H19.9108L15.984 56.0282L14.2723 57.7452V61.7673H12.1938V49.7858H14.2741V55.2219L19.5584 49.7858H22.2086V49.784Z" fill="white"/>
<path d="M23.6846 49.784H29.3374C30.5223 49.784 31.4896 50.0509 32.2394 50.583C32.9891 51.1169 33.3631 51.9592 33.3631 53.1153C33.3631 53.8331 33.1905 54.4464 32.8435 54.9568C32.4965 55.4672 32.011 55.8352 31.3835 56.0588C31.673 56.1256 31.9247 56.2266 32.1387 56.3618C32.3508 56.4971 32.5162 56.6432 32.6331 56.8001C32.75 56.957 32.8489 57.159 32.9262 57.4061C33.0053 57.6532 33.0574 57.8697 33.0862 58.0536C33.1132 58.2376 33.1401 58.4829 33.1617 58.7859C33.1725 58.8653 33.1869 59.0168 33.2031 59.2404C33.2193 59.4659 33.23 59.6138 33.2372 59.6877C33.2426 59.7599 33.2534 59.8861 33.2714 60.0665C33.2876 60.2469 33.302 60.3731 33.3128 60.4453C33.3235 60.5174 33.3433 60.6256 33.3721 60.7645C33.3991 60.9052 33.4242 61.0116 33.4476 61.0856C33.4692 61.1577 33.4979 61.2425 33.5321 61.3381C33.5663 61.4337 33.604 61.5148 33.649 61.5816C33.6939 61.6483 33.7443 61.7114 33.8 61.7673H31.5525C31.5184 61.7222 31.4878 61.6699 31.4608 61.6068C31.4339 61.5455 31.4069 61.4787 31.3853 61.4048C31.3619 61.3327 31.3458 61.2641 31.335 61.2028C31.3242 61.1415 31.3098 61.0567 31.2936 60.9503C31.2774 60.8439 31.2649 60.7573 31.2595 60.6888C31.2541 60.622 31.2451 60.521 31.2343 60.3857C31.2235 60.2505 31.2145 60.1495 31.2091 60.0827C31.2037 60.016 31.1947 59.897 31.1839 59.7292C31.1732 59.5597 31.1678 59.4424 31.1678 59.3757C31.112 58.3999 30.9071 57.729 30.5564 57.3646C30.204 57.0003 29.5352 56.8181 28.5517 56.8181H25.7666V61.7655H23.6864V49.784H23.6846ZM25.763 51.501V55.2544H28.5301C28.9329 55.2544 29.2745 55.231 29.5532 55.1877C29.8319 55.1426 30.1159 55.0614 30.4 54.9442C30.6841 54.8269 30.9035 54.6321 31.0545 54.3634C31.2055 54.0947 31.281 53.752 31.281 53.3371C31.281 52.9548 31.2145 52.6391 31.0797 52.3866C30.9448 52.1341 30.7524 51.9465 30.5007 51.8239C30.249 51.7012 29.9919 51.6165 29.7294 51.5714C29.4669 51.5263 29.1558 51.5046 28.798 51.5046H25.763V51.501Z" fill="white"/>
<path d="M40.9616 49.7677L45.5734 61.7655H43.326L42.186 58.5857H37.4555L36.2815 61.7655H34.1167L38.7303 49.7677H40.9616ZM41.6323 57.0039L39.8541 51.9555L37.9913 57.0039H41.6323Z" fill="white"/>
<path d="M48.8278 49.784V61.7655H46.7134V49.784H48.8278Z" fill="white"/>
<path d="M61.0395 49.784V61.7655H58.8765L53.3082 52.9494V61.7655H51.3286V49.784H53.5257L59.0276 58.6182V49.784H61.0395Z" fill="white"/>
<path d="M65.6012 49.784V61.7655H63.4868V49.784H65.6012Z" fill="white"/>
<path d="M73.5861 49.7677L78.1979 61.7655H75.9505L74.8105 58.5857H70.0801L68.906 61.7655H66.7412L71.3548 49.7677H73.5861ZM74.2568 57.0039L72.4786 51.9555L70.6159 57.0039H74.2568Z" fill="white"/>
<path d="M89 49.784V61.7655H86.837L81.2686 52.9494V61.7655H79.2891V49.784H81.4862L86.988 58.6182V49.784H89Z" fill="white"/>
<path d="M88.9854 0H0.0537109V4.65158H88.9854V0Z" fill="white"/>
<path d="M76.9821 9.47269V37.9503H71.5198V9.47269H59.2792H58.6049H47.2741V37.9503H41.8136V9.47269H30.436H29.7617H17.566V37.9503H12.1056V9.47269H0.0537109V14.0539H7.34991V42.5315H22.3217V14.0539H29.7617H30.436H37.0579V42.5315H52.0297V14.0539H58.6049H59.2792H66.766V42.5315H81.7359V14.0539H88.9854V9.47269H76.9821Z" fill="#2CBF96"/>
</svg>
