<svg width="93" height="64" viewBox="0 0 93 64" fill="none" xmlns="http://www.w3.org/2000/svg">
<path d="M10.2356 51.3901V58.964C10.2356 62.3209 8.54097 64.0002 5.15351 64.0002C3.38933 64.0002 2.08921 63.5832 1.25315 62.7491C0.417091 61.9169 0 60.6434 0 58.9286V51.3901H2.19067V59.3624C2.19067 61.2615 3.19018 62.211 5.18733 62.211C5.79418 62.211 6.29394 62.1291 6.68661 61.9671C7.07739 61.8051 7.36673 61.5557 7.55461 61.2205C7.74061 60.8854 7.87024 60.5224 7.93976 60.1351C8.00927 59.746 8.04497 59.2638 8.04497 58.6847V51.3883H10.2356V51.3901Z" fill="white"/>
<path d="M23.2065 51.3899L18.2109 56.3237L23.5222 63.758H20.8055L16.7022 57.8355L14.9136 59.608V63.7598H12.7417V51.3918H14.9155V57.0033L20.4372 51.3918H23.2065V51.3899Z" fill="white"/>
<path d="M24.7495 51.3899H30.6564C31.8945 51.3899 32.9053 51.6654 33.6888 52.2147C34.4722 52.7658 34.863 53.6352 34.863 54.8287C34.863 55.5697 34.6827 56.2027 34.3201 56.7296C33.9575 57.2565 33.4502 57.6363 32.7945 57.8672C33.097 57.936 33.36 58.0403 33.5836 58.1799C33.8053 58.3196 33.9781 58.4704 34.1002 58.6324C34.2224 58.7943 34.3257 59.0029 34.4065 59.2579C34.4892 59.513 34.5436 59.7364 34.5737 59.9263C34.6019 60.1162 34.6301 60.3694 34.6526 60.6822C34.6639 60.7641 34.6789 60.9205 34.6958 61.1514C34.7127 61.3841 34.724 61.5368 34.7315 61.6131C34.7372 61.6876 34.7484 61.8179 34.7672 62.0041C34.7841 62.1903 34.7991 62.3206 34.8104 62.3951C34.8217 62.4696 34.8424 62.5813 34.8724 62.7246C34.9006 62.8699 34.9269 62.9797 34.9513 63.056C34.9739 63.1305 35.0039 63.218 35.0396 63.3167C35.0753 63.4154 35.1148 63.4992 35.1618 63.568C35.2087 63.6369 35.2613 63.7021 35.3196 63.7598H32.9711C32.9354 63.7133 32.9035 63.6593 32.8753 63.5941C32.8471 63.5308 32.8189 63.4619 32.7964 63.3856C32.7719 63.3111 32.755 63.2404 32.7438 63.1771C32.7325 63.1138 32.7175 63.0263 32.7005 62.9164C32.6836 62.8066 32.6705 62.7172 32.6648 62.6464C32.6592 62.5776 32.6498 62.4733 32.6385 62.3337C32.6273 62.194 32.6179 62.0898 32.6122 62.0209C32.6066 61.952 32.5972 61.8291 32.5859 61.656C32.5747 61.4809 32.569 61.3599 32.569 61.291C32.5108 60.2838 32.2966 59.5912 31.9302 59.2151C31.562 58.839 30.8631 58.651 29.8354 58.651H26.9251V63.758H24.7514V51.3899H24.7495ZM26.9214 53.1623V57.0368H29.8128C30.2337 57.0368 30.5907 57.0126 30.8819 56.9679C31.1731 56.9214 31.4699 56.8376 31.7668 56.7166C32.0636 56.5955 32.2928 56.3945 32.4507 56.1171C32.6085 55.8396 32.6874 55.4859 32.6874 55.0577C32.6874 54.663 32.6179 54.3372 32.477 54.0765C32.3361 53.8158 32.135 53.6222 31.872 53.4956C31.609 53.369 31.3403 53.2815 31.066 53.235C30.7917 53.1884 30.4667 53.1661 30.0928 53.1661H26.9214V53.1623Z" fill="white"/>
<path d="M42.8024 51.3731L47.6215 63.758H45.2731L44.0819 60.4756H39.1388L37.912 63.758H35.6499L40.4709 51.3731H42.8024ZM43.5032 58.8428L41.6451 53.6315L39.6987 58.8428H43.5032Z" fill="white"/>
<path d="M51.0224 51.3899V63.758H48.813V51.3899H51.0224Z" fill="white"/>
<path d="M63.7831 51.3899V63.758H61.5229L55.7043 54.6574V63.758H53.6357V51.3899H55.9316L61.6807 60.5091V51.3899H63.7831Z" fill="white"/>
<path d="M68.5493 51.3899V63.758H66.3398V51.3899H68.5493Z" fill="white"/>
<path d="M76.8933 51.3731L81.7124 63.758H79.3639L78.1727 60.4756H73.2296L72.0028 63.758H69.7407L74.5617 51.3731H76.8933ZM77.5941 58.8428L75.7359 53.6315L73.7895 58.8428H77.5941Z" fill="white"/>
<path d="M92.9999 51.3899V63.758H90.7397L84.9211 54.6574V63.758H82.8525V51.3899H85.1484L90.8975 60.5091V51.3899H92.9999Z" fill="white"/>
<path d="M92.9848 0H0.0561523V4.80163H92.9848V0Z" fill="white"/>
<path d="M80.442 9.77826V39.1745H74.7342V9.77826H61.9434H61.2389H49.3988V39.1745H43.6929V9.77826H31.8039H31.0994H18.3555V39.1745H12.6497V9.77826H0.0561523V14.5073H7.68027V43.9035H23.3249V14.5073H31.0994H31.8039H38.7235V43.9035H54.3682V14.5073H61.2389H61.9434H69.7667V43.9035H85.4095V14.5073H92.9848V9.77826H80.442Z" fill="#2CBF96"/>
</svg>
