<svg width="116" height="80" viewBox="0 0 116 80" fill="none" xmlns="http://www.w3.org/2000/svg">
<path d="M12.6704 64.2374V73.7048C12.6704 77.9008 10.5726 80 6.37938 80C4.19555 80 2.58617 79.4787 1.55124 78.4361C0.516304 77.3958 0 75.804 0 73.6606V64.2374H2.71176V74.2028C2.71176 76.5766 3.94903 77.7635 6.42124 77.7635C7.17244 77.7635 7.79108 77.6611 8.27715 77.4587C8.76089 77.2562 9.11905 76.9443 9.35162 76.5254C9.58186 76.1065 9.74234 75.6527 9.82839 75.1686C9.91444 74.6822 9.95863 74.0795 9.95863 73.3557V64.2351H12.6704V64.2374Z" fill="white"/>
<path d="M28.7266 64.2374L22.5426 70.4047L29.1173 79.6975H25.7543L20.675 72.2944L18.461 74.51V79.6998H15.7725V64.2397H18.4633V71.2541L25.2985 64.2397H28.7266V64.2374Z" fill="white"/>
<path d="M30.6357 64.2374H37.9477C39.4804 64.2374 40.7316 64.5818 41.7014 65.2684C42.6712 65.9573 43.155 67.0441 43.155 68.5359C43.155 69.4621 42.9317 70.2534 42.4828 70.912C42.034 71.5706 41.406 72.0454 40.5944 72.334C40.9688 72.4201 41.2944 72.5504 41.5712 72.725C41.8456 72.8995 42.0596 73.088 42.2107 73.2905C42.3619 73.493 42.4898 73.7536 42.5898 74.0724C42.6921 74.3913 42.7596 74.6706 42.7968 74.9079C42.8317 75.1453 42.8666 75.4618 42.8945 75.8528C42.9084 75.9552 42.927 76.1507 42.948 76.4393C42.9689 76.7302 42.9829 76.921 42.9922 77.0164C42.9991 77.1095 43.0131 77.2724 43.0364 77.5052C43.0573 77.7379 43.0759 77.9008 43.0898 77.9939C43.1038 78.087 43.1294 78.2266 43.1666 78.4058C43.2015 78.5874 43.234 78.7247 43.2643 78.8201C43.2922 78.9132 43.3294 79.0226 43.3736 79.1459C43.4178 79.2692 43.4666 79.374 43.5247 79.4601C43.5829 79.5462 43.648 79.6276 43.7201 79.6998H40.813C40.7688 79.6416 40.7293 79.5741 40.6944 79.4927C40.6595 79.4135 40.6246 79.3274 40.5967 79.232C40.5665 79.1389 40.5455 79.0505 40.5316 78.9714C40.5176 78.8922 40.499 78.7828 40.4781 78.6455C40.4572 78.5082 40.4409 78.3965 40.4339 78.3081C40.4269 78.222 40.4153 78.0916 40.4013 77.9171C40.3874 77.7426 40.3758 77.6122 40.3688 77.5261C40.3618 77.44 40.3502 77.2864 40.3362 77.07C40.3223 76.8512 40.3153 76.6999 40.3153 76.6138C40.2432 75.3548 39.9781 74.489 39.5246 74.0189C39.0687 73.5488 38.2036 73.3138 36.9314 73.3138H33.3289V79.6975H30.6381V64.2374H30.6357ZM33.3242 66.453V71.296H36.9035C37.4244 71.296 37.8663 71.2658 38.2268 71.2099C38.5873 71.1517 38.9548 71.047 39.3222 70.8957C39.6897 70.7445 39.9734 70.4931 40.1688 70.1463C40.3641 69.7996 40.4618 69.3574 40.4618 68.8221C40.4618 68.3287 40.3758 67.9215 40.2013 67.5957C40.0269 67.2698 39.7781 67.0278 39.4525 66.8695C39.1269 66.7113 38.7943 66.6019 38.4547 66.5437C38.1152 66.4855 37.7128 66.4576 37.25 66.4576H33.3242V66.453Z" fill="white"/>
<path d="M52.9843 64.2164L58.9497 79.6975H56.0426L54.5681 75.5945H48.4492L46.9305 79.6975H44.1304L50.0981 64.2164H52.9843ZM53.8518 73.5534L51.5517 67.0394L49.1422 73.5534H53.8518Z" fill="white"/>
<path d="M63.1588 64.2374V79.6975H60.4238V64.2374H63.1588Z" fill="white"/>
<path d="M78.9546 64.2374V79.6975H76.1568L68.9541 68.3218V79.6975H66.3936V64.2374H69.2356L76.3522 75.6364V64.2374H78.9546Z" fill="white"/>
<path d="M84.8551 64.2374V79.6975H82.1201V64.2374H84.8551Z" fill="white"/>
<path d="M95.183 64.2164L101.148 79.6975H98.2413L96.7668 75.5945H90.6479L89.1292 79.6975H86.3291L92.2968 64.2164H95.183ZM96.0505 73.5534L93.7504 67.0394L91.341 73.5534H96.0505Z" fill="white"/>
<path d="M115.122 64.2374V79.6975H112.324L105.121 68.3218V79.6975H102.561V64.2374H105.403L112.519 75.6364V64.2374H115.122Z" fill="white"/>
<path d="M115.103 0H0.0698242V6.00204H115.103V0Z" fill="white"/>
<path d="M99.577 12.2228V48.9681H92.5116V12.2228H76.6782H75.8061H61.1496V48.9681H54.0864V12.2228H39.3694H38.4973H22.7221V48.9681H15.659V12.2228H0.0698242V18.1341H9.5075V54.8794H28.8736V18.1341H38.4973H39.3694H47.935V54.8794H67.301V18.1341H75.8061H76.6782H86.3624V54.8794H105.726V18.1341H115.103V12.2228H99.577Z" fill="white"/>
</svg>
