<svg width="64" height="44" viewBox="0 0 64 44" fill="none" xmlns="http://www.w3.org/2000/svg">
<path d="M7.04388 35.3306V40.5376C7.04388 42.8454 5.87766 44 3.5465 44C2.33244 44 1.43774 43.7133 0.862384 43.1398C0.28703 42.5677 0 41.6922 0 40.5133V35.3306H1.50756V40.8115C1.50756 42.1171 2.19539 42.7699 3.56978 42.7699C3.98739 42.7699 4.33131 42.7136 4.60153 42.6022C4.87046 42.4909 5.06958 42.3194 5.19887 42.089C5.32687 41.8586 5.41608 41.609 5.46392 41.3427C5.51176 41.0752 5.53632 40.7437 5.53632 40.3456V35.3293H7.04388V35.3306Z" fill="white"/>
<path d="M15.9702 35.3305L12.5323 38.7225L16.1874 43.8336H14.3178L11.4941 39.7619L10.2632 40.9805V43.8349H8.76855V35.3318H10.2645V39.1897L14.0644 35.3318H15.9702V35.3305Z" fill="white"/>
<path d="M17.0317 35.3305H21.0967C21.9487 35.3305 22.6443 35.52 23.1835 35.8976C23.7226 36.2765 23.9916 36.8742 23.9916 37.6947C23.9916 38.2041 23.8675 38.6393 23.6179 39.0016C23.3684 39.3638 23.0193 39.6249 22.5681 39.7837C22.7762 39.831 22.9572 39.9027 23.1111 39.9987C23.2637 40.0947 23.3826 40.1984 23.4666 40.3097C23.5507 40.4211 23.6218 40.5645 23.6774 40.7398C23.7343 40.9152 23.7718 41.0688 23.7925 41.1993C23.8119 41.3299 23.8313 41.504 23.8468 41.719C23.8545 41.7753 23.8649 41.8829 23.8765 42.0416C23.8881 42.2016 23.8959 42.3065 23.9011 42.359C23.905 42.4102 23.9127 42.4998 23.9256 42.6278C23.9373 42.7558 23.9476 42.8454 23.9554 42.8966C23.9631 42.9478 23.9774 43.0246 23.998 43.1232C24.0174 43.223 24.0355 43.2985 24.0523 43.351C24.0679 43.4022 24.0885 43.4624 24.1131 43.5302C24.1377 43.5981 24.1648 43.6557 24.1972 43.703C24.2295 43.7504 24.2657 43.7952 24.3058 43.8349H22.6896C22.665 43.8029 22.6431 43.7657 22.6237 43.7209C22.6043 43.6774 22.5849 43.6301 22.5694 43.5776C22.5525 43.5264 22.5409 43.4777 22.5332 43.4342C22.5254 43.3907 22.5151 43.3305 22.5034 43.255C22.4918 43.1795 22.4827 43.1181 22.4789 43.0694C22.475 43.0221 22.4685 42.9504 22.4607 42.8544C22.453 42.7584 22.4465 42.6867 22.4426 42.6393C22.4388 42.592 22.4323 42.5075 22.4245 42.3885C22.4168 42.2681 22.4129 42.1849 22.4129 42.1376C22.3728 41.4451 22.2254 40.9689 21.9733 40.7104C21.7199 40.4518 21.2389 40.3225 20.5317 40.3225H18.529V43.8336H17.033V35.3305H17.0317ZM18.5264 36.5491V39.2128H20.5162C20.8058 39.2128 21.0515 39.1961 21.2519 39.1654C21.4523 39.1334 21.6565 39.0758 21.8608 38.9926C22.0651 38.9094 22.2229 38.7712 22.3315 38.5805C22.4401 38.3897 22.4944 38.1465 22.4944 37.8521C22.4944 37.5808 22.4465 37.3568 22.3496 37.1776C22.2526 36.9984 22.1142 36.8653 21.9332 36.7782C21.7522 36.6912 21.5673 36.631 21.3786 36.599C21.1898 36.567 20.9661 36.5517 20.7088 36.5517H18.5264V36.5491Z" fill="white"/>
<path d="M29.4554 35.319L32.7717 43.8336H31.1556L30.3359 41.577H26.9342L26.0899 43.8336H24.5332L27.8509 35.319H29.4554ZM29.9376 40.4544L28.6589 36.8717L27.3195 40.4544H29.9376Z" fill="white"/>
<path d="M35.1123 35.3305V43.8336H33.5918V35.3305H35.1123Z" fill="white"/>
<path d="M43.8938 35.3305V43.8336H42.3384L38.3342 37.5769V43.8336H36.9106V35.3305H38.4906L42.447 41.6V35.3305H43.8938Z" fill="white"/>
<path d="M47.1738 35.3305V43.8336H45.6533V35.3305H47.1738Z" fill="white"/>
<path d="M52.9158 35.319L56.2322 43.8336H54.616L53.7963 41.577H50.3946L49.5503 43.8336H47.9937L51.3113 35.319H52.9158ZM53.3981 40.4544L52.1194 36.8717L50.7799 40.4544H53.3981Z" fill="white"/>
<path d="M64.0002 35.3305V43.8336H62.4448L58.4406 37.5769V43.8336H57.0171V35.3305H58.597L62.5534 41.6V35.3305H64.0002Z" fill="white"/>
<path d="M63.9894 0H0.0385742V3.30112H63.9894V0Z" fill="white"/>
<path d="M55.3578 6.72256V26.9325H51.4299V6.72256H42.6277H42.1428H33.9948V26.9325H30.0681V6.72256H21.8865H21.4016H12.6317V26.9325H8.70508V6.72256H0.0385742V9.97376H5.28528V30.1837H16.0515V9.97376H21.4016H21.8865H26.6483V30.1837H37.4146V9.97376H42.1428H42.6277H48.0114V30.1837H58.7764V9.97376H63.9894V6.72256H55.3578Z" fill="#2CBF96"/>
</svg>
