<svg width="47" height="48" viewBox="0 0 47 48" fill="none" xmlns="http://www.w3.org/2000/svg">
<path fill-rule="evenodd" clip-rule="evenodd" d="M30.8184 7.56395C27.2766 5.98581 23.3195 5.59486 19.5374 6.44938C15.7552 7.30391 12.3506 9.35813 9.83136 12.3057C7.31208 15.2532 5.8131 18.9362 5.55798 22.8053C5.30285 26.6743 6.30525 30.5222 8.41568 33.7751C10.5261 37.0279 13.6315 39.5114 17.2687 40.8551C20.9059 42.1989 24.88 42.3309 28.5983 41.2315C32.3167 40.1321 35.58 37.8602 37.9017 34.7546C40.2234 31.649 41.4789 27.8761 41.4811 23.9986V20.5956H44.6857V23.9996C44.6831 28.5681 43.2037 33.0143 40.4683 36.6733C37.7329 40.3324 33.888 43.0092 29.5069 44.3045C25.1259 45.5999 20.4435 45.4443 16.1581 43.8611C11.8727 42.2779 8.21391 39.3518 5.72737 35.5192C3.24083 31.6867 2.05978 27.153 2.36038 22.5944C2.66097 18.0358 4.4271 13.6965 7.39535 10.2236C10.3636 6.75076 14.375 4.33044 18.8312 3.32362C23.2873 2.31681 27.9496 2.77744 32.1226 4.63682L33.5862 5.28895L32.2819 8.21607L30.8184 7.56395Z" fill="#2CBF96"/>
<path fill-rule="evenodd" clip-rule="evenodd" d="M45.3491 8.33221L24.6334 29.0687L22.3669 29.0692L15.3589 22.0613L17.6248 19.7953L23.4993 25.6697L43.082 6.06738L45.3491 8.33221Z" fill="#2CBF96"/>
</svg>
