<?xml version="1.0" standalone="no"?>
<!DOCTYPE svg PUBLIC "-//W3C//DTD SVG 20010904//EN"
 "http://www.w3.org/TR/2001/REC-SVG-20010904/DTD/svg10.dtd">
<svg version="1.0" xmlns="http://www.w3.org/2000/svg"
 width="700.000000pt" height="700.000000pt" viewBox="0 0 700.000000 700.000000"
 preserveAspectRatio="xMidYMid meet">
<metadata>
Created by potrace 1.14, written by Peter Selinger 2001-2017
</metadata>
<g transform="translate(0.000000,700.000000) scale(0.100000,-0.100000)"
fill="#000000" stroke="none">
<path d="M596 5375 c0 -79 4 -148 8 -152 4 -5 1317 -8 2917 -8 l2909 -1 0 153
0 153 -2917 0 -2918 0 1 -145z"/>
<path d="M599 4887 c-5 -56 -3 -271 3 -279 4 -7 83 -11 230 -11 122 0 228 -1
233 -4 7 -2 10 -322 10 -933 l0 -930 491 0 492 0 0 923 c0 507 1 927 1 933 1
8 137 11 484 10 l482 -1 1 -920 c1 -506 2 -926 3 -932 1 -10 106 -13 490 -13
l490 0 0 868 c0 477 0 897 1 933 l0 66 483 0 482 0 -1 -921 c0 -507 2 -927 4
-933 3 -10 111 -13 492 -13 l487 0 1 903 c0 496 1 916 1 933 l1 31 203 1 c111
0 217 0 235 1 l32 1 0 149 0 150 -389 0 c-298 0 -390 -2 -393 -12 -2 -7 -4
-427 -3 -934 l1 -923 -181 0 -180 0 1 935 1 934 -796 0 -796 0 0 -935 0 -934
-179 2 -179 3 -1 930 -1 930 -795 0 -795 0 0 -930 0 -930 -180 -3 -180 -2 0
932 0 933 -392 2 c-306 2 -393 0 -394 -10z"/>
<path d="M602 2251 c-11 -8 -8 -557 3 -596 11 -39 41 -94 68 -122 58 -64 215
-94 345 -67 110 23 183 94 207 204 9 39 14 579 5 581 -3 1 -33 2 -67 3 -57 1
-63 -1 -64 -19 0 -11 -1 -139 -3 -285 -2 -249 -3 -267 -23 -305 -29 -54 -55
-67 -140 -73 -59 -4 -79 -1 -115 17 -81 39 -83 46 -86 374 -2 158 -6 288 -10
288 -24 5 -114 4 -120 0z"/>
<path d="M1400 2250 c-5 -3 -8 -180 -8 -393 l1 -387 68 0 69 0 0 133 0 133 53
52 c29 29 55 52 58 52 3 0 61 -83 130 -185 l124 -184 89 -1 88 0 -24 33 c-14
17 -89 124 -168 235 l-143 204 156 156 157 157 -80 -1 c-44 -1 -84 -2 -88 -3
-9 -1 -221 -214 -306 -306 l-46 -50 0 178 c0 97 -3 177 -7 178 -29 4 -116 4
-123 -1z"/>
<path d="M2158 2250 c-10 -4 -13 -90 -13 -393 l0 -387 68 0 c37 0 67 3 68 8 1
4 2 75 4 157 1 83 3 152 4 155 0 3 57 5 126 3 180 -4 208 -24 220 -154 17
-178 12 -169 102 -169 59 0 73 3 66 13 -14 17 -22 52 -28 133 -10 119 -23 160
-61 194 -19 16 -40 30 -47 30 -7 0 2 8 18 19 63 39 95 100 95 183 -1 106 -68
185 -173 204 -48 8 -430 12 -449 4z m445 -134 c62 -42 52 -169 -16 -197 -18
-8 -39 -15 -47 -17 -28 -6 -250 -8 -251 -3 -1 3 -3 59 -4 124 l-3 119 147 -4
c122 -2 150 -6 174 -22z"/>
<path d="M3131 2241 c-5 -9 -23 -54 -41 -101 -17 -47 -36 -94 -41 -105 -5 -11
-55 -143 -113 -292 l-104 -273 72 0 71 0 38 104 38 104 149 -1 c82 0 153 -3
158 -6 5 -3 24 -50 43 -103 l34 -98 73 0 c39 0 72 2 72 4 0 7 -30 91 -40 111
-5 11 -25 61 -44 110 -19 50 -75 196 -124 325 l-91 235 -71 1 c-55 1 -73 -3
-79 -15z m118 -240 c12 -29 21 -61 21 -70 0 -10 4 -21 9 -26 13 -15 41 -107
35 -116 -3 -5 -55 -9 -116 -9 -100 0 -110 2 -105 18 3 9 29 83 59 164 59 164
50 160 97 39z"/>
<path d="M3665 2250 c-5 -8 -7 -115 -6 -467 l1 -313 69 0 68 0 0 393 0 392
-64 1 c-35 0 -66 -3 -68 -6z"/>
<path d="M3961 1863 l1 -393 64 0 64 0 1 223 c0 122 0 251 -1 287 l-2 65 19
-25 c11 -14 93 -143 184 -287 l164 -263 73 0 72 0 0 393 0 392 -65 1 c-39 0
-65 -4 -66 -10 0 -6 0 -132 0 -279 0 -176 -4 -267 -10 -265 -6 2 -41 52 -77
111 -37 59 -114 182 -171 274 l-105 168 -72 0 -73 0 0 -392z"/>
<path d="M4765 2251 c-3 -2 -5 -179 -5 -393 l0 -388 70 0 70 0 0 393 0 392
-65 0 c-36 1 -68 -1 -70 -4z"/>
<path d="M5275 2251 c-1 -3 -38 -96 -80 -206 -42 -110 -87 -227 -100 -260 -95
-245 -115 -298 -115 -306 0 -5 31 -9 69 -9 l69 0 37 104 37 103 155 -1 156 -1
37 -100 37 -100 71 -3 c40 -2 72 1 72 6 0 4 -38 107 -86 228 -47 120 -91 237
-99 259 -8 22 -37 96 -64 165 l-49 125 -71 1 c-40 0 -74 -2 -76 -5z m135 -310
c28 -78 50 -146 50 -152 0 -6 -46 -9 -116 -8 -82 1 -114 4 -111 13 2 6 19 52
36 101 18 50 36 99 41 110 5 11 14 37 21 57 7 21 17 34 21 30 5 -5 31 -73 58
-151z"/>
<path d="M5802 2240 c-6 -11 -8 -657 -3 -752 1 -15 11 -18 64 -18 l64 0 1 263
c0 144 1 273 1 286 1 17 56 -63 182 -262 l181 -287 69 0 69 0 0 58 c0 31 1
206 3 389 2 288 0 332 -13 336 -13 3 -62 2 -106 -2 -8 -1 -12 -73 -12 -253 0
-337 0 -328 -14 -303 -22 41 -333 540 -345 554 -2 3 -33 5 -69 6 -50 1 -67 -3
-72 -15z"/>
</g>
</svg>
